<?xml version="1.0" encoding="UTF-8" standalone="no"?> <svg width="224" height="224" viewBox="0 0 224 224" fill="none" xmlns="http://www.w3.org/2000/svg">
<path fill-rule="evenodd" clip-rule="evenodd" d="M145.636 190.732H78.3648C63.7278 190.732 51.8204 178.824 51.8204 164.188V118.091C51.8204 103.455 63.7278 91.5472 78.3648 91.5472H96.8169C97.998 91.5472 99.026 92.3549 99.3049 93.5027C100.321 97.6878 104.177 100.725 108.473 100.725L115.646 100.725C116.325 100.725 116.977 100.995 117.456 101.476C117.935 101.956 118.206 102.608 118.206 103.287L118.201 116.738L137.162 101.3C137.618 100.928 138.19 100.726 138.778 100.726L164.471 100.725C165.255 100.725 165.997 101.084 166.482 101.699C170.21 106.425 172.18 112.093 172.18 118.09V164.185C172.18 178.824 160.273 190.732 145.636 190.732ZM78.3648 96.6684C66.5519 96.6684 56.9402 106.279 56.9402 118.093V164.188C56.9402 176 66.5504 185.612 78.3648 185.612H145.636C157.449 185.612 167.06 176 167.06 164.188V118.091C167.06 113.662 165.724 109.453 163.187 105.845H139.688L117.255 124.111C116.489 124.735 115.432 124.859 114.54 124.437C113.647 124.014 113.079 123.112 113.079 122.124L113.084 105.846L108.472 105.847C102.429 105.847 97.1263 102.16 94.9505 96.6684L78.3648 96.6684Z" fill="#333333"/>
<path fill-rule="evenodd" clip-rule="evenodd" d="M54.3806 164.874H44.6359C36.6112 164.874 30.0835 158.347 30.0835 150.322L30.0831 131.958C30.0831 123.933 36.6108 117.406 44.6355 117.406H54.3806C55.7953 117.406 56.9405 118.551 56.9405 119.965V162.315C56.9405 163.729 55.7953 164.874 54.3806 164.874ZM44.637 122.525C39.436 122.525 35.2044 126.757 35.2044 131.958V150.321C35.2044 155.522 39.436 159.754 44.637 159.754L51.8223 159.754V122.525L44.637 122.525Z" fill="#333333"/>
<path fill-rule="evenodd" clip-rule="evenodd" d="M179.364 164.874H169.619C168.205 164.874 167.059 163.729 167.059 162.314V119.966C167.059 118.551 168.205 117.406 169.619 117.406H179.364C187.389 117.406 193.917 123.933 193.917 131.958V150.321C193.917 158.347 187.389 164.874 179.364 164.874ZM172.181 159.755H179.366C184.566 159.755 188.798 155.523 188.798 150.322L188.799 131.958C188.799 126.757 184.567 122.525 179.366 122.525H172.181L172.181 159.755Z" fill="#333333"/>
<path fill-rule="evenodd" clip-rule="evenodd" d="M88.0165 139.843C86.6019 139.843 85.4567 138.698 85.4567 137.283V125.34C85.4567 123.925 86.6019 122.78 88.0165 122.78C89.4308 122.78 90.5764 123.925 90.5764 125.34V137.283C90.5764 138.696 89.4297 139.843 88.0165 139.843Z" fill="#808080"/>
<path fill-rule="evenodd" clip-rule="evenodd" d="M135.985 139.77C134.571 139.77 133.425 138.625 133.425 137.21V125.414C133.425 123.999 134.571 122.854 135.985 122.854C137.4 122.854 138.545 123.999 138.545 125.414V137.212C138.545 138.625 137.4 139.77 135.985 139.77Z" fill="#808080"/>
<path fill-rule="evenodd" clip-rule="evenodd" d="M124.554 159.498H99.4461C98.0318 159.498 96.8862 158.353 96.8862 156.938C96.8862 155.524 98.0318 154.378 99.4461 154.378H124.554C125.969 154.378 127.114 155.524 127.114 156.938C127.114 158.353 125.969 159.498 124.554 159.498Z" fill="#808080"/>
<path fill-rule="evenodd" clip-rule="evenodd" d="M115.639 124.685C115.265 124.685 114.89 124.602 114.54 124.437C113.647 124.013 113.079 123.112 113.079 122.123L113.085 105.846L108.473 105.846C100.449 105.846 93.9211 99.3185 93.9211 91.2938V47.8208C93.9211 39.7961 100.449 33.2685 108.473 33.2685L177.055 33.2677C185.08 33.2677 191.606 39.7957 191.606 47.8205V91.293C191.606 99.3181 185.079 105.846 177.055 105.846L139.689 105.846L117.255 124.11C116.791 124.489 116.218 124.685 115.639 124.685ZM108.473 38.3876C103.272 38.3876 99.0409 42.6195 99.0409 47.8205V91.2931C99.0409 96.4941 103.271 100.726 108.473 100.726L115.646 100.726C116.325 100.726 116.977 100.996 117.455 101.477C117.935 101.957 118.206 102.609 118.206 103.288L118.202 116.739L137.162 101.301C137.618 100.929 138.19 100.727 138.778 100.727L177.055 100.726C182.255 100.726 186.486 96.4945 186.486 91.2938V47.8209C186.486 42.6203 182.255 38.3883 177.055 38.3883L108.473 38.3876Z" fill="#333333"/>
<path fill-rule="evenodd" clip-rule="evenodd" d="M118.216 78.8632C113.084 78.8632 108.911 74.6891 108.911 69.5588C108.911 64.4269 113.086 60.254 118.216 60.254C123.347 60.254 127.521 64.4285 127.521 69.5588C127.523 74.6891 123.348 78.8632 118.216 78.8632Z" fill="#808080"/>
<path fill-rule="evenodd" clip-rule="evenodd" d="M142.763 78.8632C137.631 78.8632 133.458 74.6891 133.458 69.5588C133.458 64.4269 137.632 60.254 142.763 60.254C147.893 60.254 152.067 64.4285 152.067 69.5588C152.069 74.6891 147.894 78.8632 142.763 78.8632Z" fill="#808080"/>
<path fill-rule="evenodd" clip-rule="evenodd" d="M167.31 78.8632C162.178 78.8632 158.005 74.6891 158.005 69.5588C158.005 64.4269 162.179 60.254 167.31 60.254C172.44 60.254 176.615 64.4285 176.615 69.5588C176.616 74.6891 172.442 78.8632 167.31 78.8632Z" fill="#808080"/>
<path fill-rule="evenodd" clip-rule="evenodd" d="M44.637 122.526C43.2227 122.526 42.0771 121.38 42.0771 119.966V85.9195C42.0771 84.5048 43.2227 83.3596 44.637 83.3596C46.0517 83.3596 47.1969 84.5048 47.1969 85.9195V119.966C47.1969 121.379 46.0506 122.526 44.637 122.526Z" fill="#333333"/>
<path fill-rule="evenodd" clip-rule="evenodd" d="M44.637 67.2125C40.1855 67.2125 36.5628 70.8351 36.5628 75.2867C36.5628 79.7382 40.1855 83.3609 44.637 83.3609C49.0885 83.3609 52.7112 79.7382 52.7112 75.2867C52.7112 70.8351 49.0889 67.2125 44.637 67.2125Z" fill="#808080"/>
<path fill-rule="evenodd" clip-rule="evenodd" d="M44.637 88.4791C37.3614 88.4791 31.4431 82.5607 31.4431 75.2851C31.4431 68.0095 37.3614 62.0912 44.637 62.0912C51.9126 62.0912 57.831 68.0095 57.831 75.2851C57.831 82.5607 51.9115 88.4791 44.637 88.4791Z" fill="#808080"/>
</svg>
