<?xml version="1.0" encoding="utf-8"?>
<!-- Generator: Adobe Illustrator 19.2.1, SVG Export Plug-In . SVG Version: 6.00 Build 0)  -->
<svg version="1.1" id="layer" xmlns="http://www.w3.org/2000/svg" xmlns:xlink="http://www.w3.org/1999/xlink" x="0px" y="0px"
	 viewBox="0 0 652 652" style="enable-background:new 0 0 652 652;" xml:space="preserve">
<style type="text/css">
	.st0{fill:#6b7280;}
	.st1{fill:#FFFFFF;}
</style>
<path class="st0" d="M252.2,332.3c0,15.5-11.4,28.2-25.7,28.2c-8.7,0-15.3-4-19.3-10.8v9.7h-12.2v-77.3h12.3v33.1
	c3.9-6.8,10.5-10.8,19.3-10.8C240.9,304.2,252.2,316.7,252.2,332.3z M240.2,332.3c0-9.1-7.2-16.3-16.3-16.3c-9.5,0-16.6,7-16.6,16.3
	c0,9.4,7,16.5,16.6,16.5C233.1,348.8,240.2,341.4,240.2,332.3z M314.8,332.4c0,16-12.3,28-28,28s-28-12.1-28-28s12.1-28.2,28-28.2
	S314.8,316.4,314.8,332.4z M270.9,332.4c0,9.2,6.8,16.2,15.8,16.2c8.9,0,15.9-7,15.9-16.2c0-9.3-7-16.3-15.9-16.3
	C277.8,316.1,270.9,323.1,270.9,332.4z M341,317v21.7c0,6.8,4.2,9.6,10.2,9.6c1.3,0,2.8-0.1,4-0.4v11.4c-1.9,0.4-4.6,0.7-6.6,0.7
	c-11.9,0-19.9-7.3-19.9-21V317h-10.2v-11.7h10.2v-14.5H341v14.5h14.2V317H341z M422,332.4c0,15.5-11.4,28-25.7,28
	c-8.7,0-15.3-4-19.3-10.8v28.6h-12.3v-72.9h12.3v9.7c3.9-6.8,10.5-10.8,19.3-10.8C410.6,304.2,422,316.8,422,332.4z M410,332.4
	c0-9.2-7.2-16.5-16.3-16.5c-9.5,0-16.6,7-16.6,16.5c0,9.3,7,16.3,16.6,16.3C402.8,348.8,410,341.4,410,332.4z M464.3,304.9v11.3
	c-1.7-0.4-3.6-0.8-5.4-0.8c-7.8,0-14.2,5.4-14.2,15.1v28.8h-12.3v-54h12.3v7.2c3.2-5.2,8.1-8.3,14.6-8.3
	C460.9,304.2,462.7,304.6,464.3,304.9z M520.1,336.4h-41.4c1.5,7.9,7,12.9,15.8,12.9c6.6,0,11.8-3.1,12.9-7.7h12.4
	c-2,11.4-12.3,18.9-25.5,18.9c-15.8,0-28-12.3-28-28.4c0-15.7,12.3-27.8,27.8-27.8c14.6,0,26.4,11.2,26.4,27
	C520.4,332.6,520.4,335.4,520.1,336.4z M507.1,325.9c-1.1-6.2-6.3-10.5-13.7-10.5c-7.3,0-12.6,3.9-14.4,10.5H507.1z M527.1,342H539
	c0.4,4.7,5.1,7.8,11.2,7.8c6,0,9.5-2.5,9.5-6.3c0-11.6-31.2-2.2-31.2-22.7c0-9.4,7.8-16.6,20.4-16.6c11.2,0,20.9,6,22.1,16.9h-12.4
	c-0.6-3.6-4.3-6.6-10-6.6c-4.9,0-8.3,2.1-8.3,5.5c0,10.9,31.4,0.9,31.4,23.4c0,9.7-8.9,17-20.9,17
	C537.4,360.5,528.2,353.6,527.1,342z M577.5,342h11.8c0.4,4.7,5.1,7.8,11.2,7.8c6,0,9.5-2.5,9.5-6.3c0-11.6-31.2-2.2-31.2-22.7
	c0-9.4,7.8-16.6,20.4-16.6c11.2,0,20.9,6,22.1,16.9H609c-0.6-3.6-4.3-6.6-10-6.6c-4.9,0-8.3,2.1-8.3,5.5c0,10.9,31.4,0.9,31.4,23.4
	c0,9.7-8.9,17-20.9,17C587.9,360.5,578.7,353.6,577.5,342z"/>
<path class="st0" d="M88.8,387.4c36.8,0,66.6-29.8,66.6-66.6c0-36.8-29.8-66.6-66.6-66.6c-36.8,0-66.6,29.8-66.6,66.6
	C22.1,357.6,52,387.4,88.8,387.4z"/>
<path class="st1" d="M107.5,329.2l5,2.9l5,2.9c1.2,0.7,2,2,1.9,3.3v11.6c0,1.4-0.7,2.6-1.9,3.3l-5,2.9l-5,2.9
	c-1.2,0.7-2.6,0.7-3.9,0l-5-2.9l-5-2.9c-1.2-0.7-2-2-1.9-3.3V339l-23.4-13.5l4.6,6.8l-5.7,3.3c-1.2,0.7-2.6,0.7-3.9,0l-5-2.9l-5-2.9
	c-1.2-0.7-1.9-1.9-1.9-3.3v-11.6c0-1.4,0.7-2.6,1.9-3.3l5-2.9l5-2.9c1.2-0.7,2.6-0.7,3.9,0l5,2.9l4.4,2.5l15.1-8.7v-10.8
	c0-1.4,0.7-2.6,1.9-3.3l5-2.9l5-2.9c1.2-0.7,2.6-0.7,3.9,0l5,2.9l5,2.9c1.2,0.7,2,2,1.9,3.3v11.6c0,1.4-0.7,2.6-1.9,3.3l-5,2.9
	l-5,2.9c-1.2,0.7-2.6,0.7-3.9,0l-5-2.9l-0.3-0.1l5.3-7.8l-9.4,5.4l-15.1,8.7V326l15.1,8.7l4.4-2.5l5-2.9
	C104.8,328.4,106.4,328.5,107.5,329.2z"/>
</svg>
