<svg xmlns="http://www.w3.org/2000/svg" viewBox="0 0 64 64"><g id="Layer_47" data-name="Layer 47"><path d="M15.89,9.76a1,1,0,0,0-.7-.71l-3.36-.9a1,1,0,0,0-1,.26L8.41,10.86a1,1,0,0,0-.26,1l.9,3.36a1,1,0,0,0,.71.7l3.35.9a1,1,0,0,0,1-.26l2.45-2.45a1,1,0,0,0,.26-1Zm-2.82,5-2.24-.6-.6-2.24,1.64-1.64,2.24.6.6,2.24Z" id="id_107" style="fill: rgb(92, 92, 92);"></path><path d="M58.24,44.82a9.49,9.49,0,0,0-9.36-2.37L21.55,15.12C24.25,5.75,12.7-1.11,5.76,5.76s0,18.52,9.38,15.81L42.45,48.88C40.57,54.69,45.39,61.2,51.53,61,59.88,61.1,64.2,50.67,58.24,44.82Zm-1.42,12c-5.65,5.63-15-.41-12.31-7.89a1.08,1.08,0,0,0-.25-1.07L16.12,19.72a1.09,1.09,0,0,0-1.05-.23C7.61,22.24,1.54,12.81,7.18,7.18s15.05.41,12.31,7.89a1.09,1.09,0,0,0,.23,1.05L47.88,44.28a1.25,1.25,0,0,0,.69.29c.12,0,.24,0,.36-.06C56.39,41.76,62.46,51.19,56.82,56.82Z" id="id_108" style="fill: rgb(143, 143, 143);"></path><path d="M55.46,48.3a1,1,0,0,0-.71-.7l-4-1.09a1,1,0,0,0-1,.26l-3,3a1,1,0,0,0-.26,1l1.09,4a1,1,0,0,0,.7.71l4.06,1.09a1,1,0,0,0,1-.26l3-3a1,1,0,0,0,.26-1Zm-3.14,6.17-2.94-.79-.79-2.94,2.15-2.15,2.94.79.79,2.94Z" id="id_109" style="fill: rgb(92, 92, 92);"></path><path d="M35.19,24.94a1,1,0,0,0,.71-.29l7.79-7.8a1.07,1.07,0,0,0,.22-1.09h0A7.83,7.83,0,0,1,50.54,5.1L47.67,8a1,1,0,0,0-.26,1l1.47,5.48a1,1,0,0,0,.7.7l5.48,1.47a1.15,1.15,0,0,0,.26,0,1,1,0,0,0,.71-.29l2.87-2.87a7.83,7.83,0,0,1-10.66,6.63h0a1,1,0,0,0-1.09.22l-7.79,7.8a1,1,0,0,0,1.42,1.42l7.34-7.36C55,24.61,62.32,18.09,60.75,11a1,1,0,0,0-.88-.79,1.1,1.1,0,0,0-.81.28l-4,4-4.36-1.17L49.49,9l4-4a1.06,1.06,0,0,0,.27-.81A1,1,0,0,0,53,3.25C45.86,1.72,39.45,9,41.84,15.86l-7.36,7.37A1,1,0,0,0,35.19,24.94Z" id="id_110" style="fill: rgb(143, 143, 143);"></path><path d="M28.11,39.36,20.77,46.7a9.32,9.32,0,0,0-3.47-3.47l7.35-7.33a1,1,0,0,0-1.42-1.42l-7.89,7.89C6,39.56-1.06,51.09,5.87,58.13S24.44,58,21.63,48.67l7.9-7.89A1,1,0,0,0,28.11,39.36ZM17.86,56.71a7.47,7.47,0,0,1-10.57,0C2.57,52.12,6.06,43.84,12.57,44,19.08,43.84,22.58,52.12,17.86,56.71Z" id="id_111" style="fill: rgb(143, 143, 143);"></path><path d="M14.38,46.61a1,1,0,0,0-1-.26L9.3,47.45a1,1,0,0,0-.71.71l-1.1,4.11a1,1,0,0,0,.26,1l3,3a1,1,0,0,0,1,.26l4.11-1.1a1,1,0,0,0,.71-.71l1.1-4.11a1,1,0,0,0-.26-1Zm.39,7-3,.81-2.2-2.2.81-3,3-.8,2.2,2.2Z" id="id_112" style="fill: rgb(92, 92, 92);"></path></g></svg>