<svg width="324" height="11" viewBox="0 0 324 11" fill="none" xmlns="http://www.w3.org/2000/svg">
<path d="M324 4.11984C319.864 5.8723 315.493 7.08161 309.149 6.72292C305.483 6.49745 301.676 6.93813 297.916 7.03037L259.943 7.94247L241.144 8.3934L222.063 8.60861C211.112 8.74184 200.209 9.05954 189.165 9.27475C170.742 9.64369 152.272 10.0536 133.755 10.2996C124.355 10.4431 114.956 10.2381 105.274 10.3713L91.1751 10.5865L77.0759 10.7505C67.6764 10.8632 58.042 10.9555 48.5015 10.9965C38.961 11.0375 28.9506 10.7095 19.2222 10.5968C15.588 10.6313 11.9644 10.7065 8.36576 10.8223C6.75201 10.881 5.10729 10.7666 3.94801 10.5148C0.0942252 9.6027 -1.12771 6.86639 1.12817 4.3658C2.91407 2.43911 5.16994 1.12732 8.45975 1.10682C16.1673 1.10682 23.8749 1.04533 31.6295 0.973593L54.8461 0.850613C61.1438 0.850613 67.3944 0.440679 73.6451 0.399685C83.4675 0.348444 93.384 0.481672 103.253 0.563659C117.776 0.645646 132.298 0.768626 146.82 0.696888C163.457 0.625149 180.047 0.36894 196.684 0.204967C201.948 0.153725 207.212 0.12298 212.428 0.102483L237.149 0C245.373 0 253.645 0.153725 261.916 0.215215C279.118 0.36894 296.272 0.512417 313.614 0.758378C314.915 0.769173 316.207 0.810403 317.467 0.881358C322.12 1.21955 322.872 1.568 324 4.11984Z" fill="#3858FF"/>
</svg>
